<?xml version="1.0" encoding="UTF-8"?>
<svg xmlns="http://www.w3.org/2000/svg" height="20px" width="20px"><path d="M332.01 535.744q0 7.254 -5.58 12.834l-260.028 260.028q-5.58 5.58 -12.834 5.58t-12.834 -5.58l-27.9 -27.9q-5.58 -5.58 -5.58 -12.834t5.58 -12.834l219.294 -219.294 -219.294 -219.294q-5.58 -5.58 -5.58 -12.834t5.58 -12.834l27.9 -27.9q5.58 -5.58 12.834 -5.58t12.834 5.58l260.028 260.028q5.58 5.58 5.58 12.834zm214.272 0q0 7.254 -5.58 12.834l-260.028 260.028q-5.58 5.58 -12.834 5.58t-12.834 -5.58l-27.9 -27.9q-5.58 -5.58 -5.58 -12.834t5.58 -12.834l219.294 -219.294 -219.294 -219.294q-5.58 -5.58 -5.58 -12.834t5.58 -12.834l27.9 -27.9q5.58 -5.58 12.834 -5.58t12.834 5.58l260.028 260.028q5.58 5.58 5.58 12.834z" fill="#000000"/></svg>
